# xmcd CD database file
#
# Track frame offsets:
#	150
#	60687
#	108945
#	130500
#	160535
#	175367
#
# Disc length: 2702 seconds
#
# Revision: 0
# Processed by: cddbd v1.5.1PL2 Copyright (c) Steve Scherf et al.
# Submitted via: CDex 1.51
#
DISCID=420a8c06
DTITLE=Paul Dunmall - Soliloquy
DYEAR=1986
DGENRE=Jazz
TTITLE0=Inter-Action
TTITLE1=Human Atmospheres
TTITLE2=Elements
TTITLE3=Holocaust
TTITLE4=Clarinet and Ocarina
TTITLE5=Voyage
EXTD=YEAR: 1986
EXTT0=
EXTT1=
EXTT2=
EXTT3=
EXTT4=
EXTT5=
PLAYORDER=
